# xmcd
#
# Track frame offsets:
#	150
#	32339
#	48164
#	59216
#	70412
#	83374
#	98949
#	117881
#	131093
#	150175
#	168842
#	186909
#	200230
#	215082
#	232424
#	245822
#
# Disc length: 3533 seconds
#
# Revision: 0
# Processed by: cddbd v1.5.1PL2 Copyright (c) Steve Scherf et al.
# Submitted via: EasyCDDAExtractor 9.0.2.1
#
DISCID=e90dcb10
DTITLE=Various Artist - Soul
DYEAR=1999
DGENRE=Soul
TTITLE0=The Supremes - Love Child
TTITLE1=Eddie Floyd - Knock On Wood
TTITLE2=Rufus Thomas - Walking The Dog
TTITLE3=Brook Benton - Endlessly
TTITLE4=Lloyd Price - Stagger Lee
TTITLE5=Kim Weston - Emotion
TTITLE6=Edwin Starr - Miles
TTITLE7=Percy Sledge - When A Man Loves A Woman
TTITLE8=Eddie Floyd - California Girl
TTITLE9=The Originals - Please Mr. Postman
TTITLE10=Chuck Jackson - All Over The World
TTITLE11=Sam and Dave - Soul Man
TTITLE12=Barbara Pennington - Fan The Flame
TTITLE13=Brook Benton - Rainy Night In Georgia
TTITLE14=Sam and Dave - I Thank You
TTITLE15=Marv Johnson - Better Love Next Time
EXTD=
EXTT0=
EXTT1=
EXTT2=
EXTT3=
EXTT4=
EXTT5=
EXTT6=
EXTT7=
EXTT8=
EXTT9=
EXTT10=
EXTT11=
EXTT12=
EXTT13=
EXTT14=
EXTT15=
PLAYORDER=
